<svg width="80" height="20" viewBox="0 0 80 20" fill="none" xmlns="http://www.w3.org/2000/svg">
<path d="M5.24297 15.54C4.36297 15.54 3.58297 15.4067 2.90297 15.14C2.22297 14.86 1.66963 14.5 1.24297 14.06C0.816301 13.62 0.529635 13.1467 0.382968 12.64L2.46297 12C2.62297 12.44 2.92297 12.82 3.36297 13.14C3.8163 13.46 4.3763 13.6267 5.04297 13.64C5.80297 13.64 6.40297 13.4867 6.84297 13.18C7.2963 12.86 7.52297 12.44 7.52297 11.92C7.52297 11.4667 7.32963 11.0867 6.94297 10.78C6.56963 10.4733 6.06963 10.24 5.44297 10.08L3.90297 9.7C3.30297 9.54 2.76963 9.30667 2.30297 9C1.8363 8.68 1.46963 8.29333 1.20297 7.84C0.936301 7.37333 0.802968 6.82667 0.802968 6.2C0.802968 5.02667 1.18297 4.11333 1.94297 3.46C2.7163 2.79333 3.8163 2.46 5.24297 2.46C6.0563 2.46 6.76297 2.58667 7.36297 2.84C7.96297 3.08 8.46297 3.42 8.86297 3.86C9.26297 4.28667 9.5563 4.76667 9.74297 5.3L7.68297 5.98C7.50963 5.52667 7.20297 5.14667 6.76297 4.84C6.32297 4.52 5.78297 4.36 5.14297 4.36C4.4763 4.36 3.94963 4.52 3.56297 4.84C3.18963 5.14667 3.00297 5.57333 3.00297 6.12C3.00297 6.58667 3.14963 6.94667 3.44297 7.2C3.74963 7.45333 4.14963 7.64667 4.64297 7.78L6.20297 8.16C7.3363 8.44 8.20963 8.92 8.82297 9.6C9.44963 10.28 9.76297 11.0267 9.76297 11.84C9.76297 12.56 9.58297 13.2 9.22297 13.76C8.8763 14.3067 8.36963 14.74 7.70297 15.06C7.0363 15.38 6.2163 15.54 5.24297 15.54ZM4.30297 18.06V14.76H6.22297V18.06H4.30297ZM4.30297 3.7V0.399999H6.22297V3.7H4.30297ZM12.5953 12.12L10.9153 11.16L17.1753 2L18.5953 3.3L12.5953 12.12ZM10.9153 13V11.16L12.2753 10.98H22.2153V13H10.9153ZM17.3953 16V3.34L17.1953 2H19.6153V16H17.3953ZM24.7339 16.28C24.3472 16.28 24.0139 16.1467 23.7339 15.88C23.4672 15.6 23.3339 15.2667 23.3339 14.88C23.3339 14.4933 23.4672 14.16 23.7339 13.88C24.0139 13.6 24.3472 13.46 24.7339 13.46C25.1206 13.46 25.4539 13.6 25.7339 13.88C26.0139 14.16 26.1539 14.4933 26.1539 14.88C26.1539 15.2667 26.0139 15.6 25.7339 15.88C25.4539 16.1467 25.1206 16.28 24.7339 16.28ZM28.4423 16L34.6423 3.78H37.0223L31.0023 16H28.4423ZM27.3823 4.12V2H37.0223V3.78L34.8423 4.12H27.3823ZM43.0594 16.24C42.446 16.24 41.8194 16.1467 41.1794 15.96C40.5527 15.76 39.9727 15.4667 39.4394 15.08C38.906 14.68 38.4994 14.18 38.2194 13.58L40.2794 12.82C40.626 13.3133 41.0327 13.6733 41.4994 13.9C41.966 14.1133 42.446 14.22 42.9394 14.22C43.726 14.22 44.366 13.9867 44.8594 13.52C45.3527 13.04 45.5994 12.4067 45.5994 11.62C45.5994 10.86 45.3594 10.2333 44.8794 9.74C44.3994 9.24667 43.7727 9 42.9994 9C42.546 9 42.1194 9.1 41.7194 9.3C41.3327 9.5 41.0327 9.74 40.8194 10.02L38.7194 9.56L39.4994 2H47.2394V4.1H39.7794L39.4994 2.08H41.7994L40.8394 9.74L39.4194 9.56C39.5794 9.29333 39.786 9.02667 40.0394 8.76C40.306 8.48 40.626 8.22 40.9994 7.98C41.3727 7.74 41.786 7.54667 42.2394 7.4C42.6927 7.25333 43.186 7.18667 43.7194 7.2C44.5194 7.2 45.2394 7.38667 45.8794 7.76C46.5194 8.13333 47.026 8.64667 47.3994 9.3C47.7727 9.94 47.9594 10.68 47.9594 11.52C47.9594 12.4533 47.746 13.2733 47.3194 13.98C46.906 14.6867 46.3327 15.24 45.5994 15.64C44.866 16.04 44.0194 16.24 43.0594 16.24Z" fill="#077BFF"/>
<path d="M48.6219 17.344L53.0379 4.048H54.5579L50.1739 17.344H48.6219ZM61.3957 16L61.3317 14.512V4.8H62.8357V16H61.3957ZM58.7077 16.192C57.9824 16.192 57.3477 16.016 56.8037 15.664C56.2704 15.312 55.8491 14.8213 55.5397 14.192C55.2411 13.5627 55.0917 12.832 55.0917 12C55.0917 11.1573 55.2411 10.4267 55.5397 9.808C55.8491 9.17867 56.2704 8.688 56.8037 8.336C57.3477 7.984 57.9824 7.808 58.7077 7.808C59.3797 7.808 59.9611 7.984 60.4517 8.336C60.9531 8.688 61.3371 9.17867 61.6037 9.808C61.8704 10.4267 62.0037 11.1573 62.0037 12C62.0037 12.832 61.8704 13.5627 61.6037 14.192C61.3371 14.8213 60.9531 15.312 60.4517 15.664C59.9611 16.016 59.3797 16.192 58.7077 16.192ZM59.0597 14.816C59.5077 14.816 59.9024 14.6987 60.2437 14.464C60.5851 14.2187 60.8517 13.888 61.0437 13.472C61.2357 13.0453 61.3317 12.5547 61.3317 12C61.3317 11.4453 61.2357 10.96 61.0437 10.544C60.8517 10.1173 60.5851 9.78667 60.2437 9.552C59.9024 9.30667 59.5024 9.184 59.0437 9.184C58.5744 9.184 58.1584 9.30667 57.7957 9.552C57.4331 9.78667 57.1504 10.1173 56.9477 10.544C56.7451 10.96 56.6437 11.4453 56.6437 12C56.6437 12.5547 56.7451 13.0453 56.9477 13.472C57.1611 13.888 57.4491 14.2187 57.8117 14.464C58.1744 14.6987 58.5904 14.816 59.0597 14.816ZM69.522 16L69.442 14.608V11.824C69.442 11.2373 69.3727 10.752 69.234 10.368C69.106 9.97333 68.9033 9.67467 68.626 9.472C68.3593 9.26933 68.002 9.168 67.554 9.168C67.138 9.168 66.77 9.25333 66.45 9.424C66.1407 9.59467 65.8847 9.86133 65.682 10.224L64.306 9.712C64.498 9.34933 64.7433 9.024 65.042 8.736C65.3407 8.448 65.698 8.224 66.114 8.064C66.5407 7.89333 67.0313 7.808 67.586 7.808C68.3327 7.808 68.9567 7.952 69.458 8.24C69.97 8.528 70.3487 8.96 70.594 9.536C70.85 10.1013 70.9727 10.8053 70.962 11.648L70.946 16H69.522ZM67.186 16.192C66.2367 16.192 65.4953 15.9787 64.962 15.552C64.4393 15.1147 64.178 14.512 64.178 13.744C64.178 12.9227 64.45 12.2987 64.994 11.872C65.5487 11.4347 66.3167 11.216 67.298 11.216H69.522V12.416H67.714C66.978 12.416 66.4607 12.5333 66.162 12.768C65.8633 12.992 65.714 13.3067 65.714 13.712C65.714 14.0853 65.8527 14.3787 66.13 14.592C66.418 14.7947 66.8127 14.896 67.314 14.896C67.7513 14.896 68.1247 14.7947 68.434 14.592C68.754 14.3893 68.9993 14.1227 69.17 13.792C69.3513 13.4507 69.442 13.072 69.442 12.656H70.162C70.162 13.744 69.9113 14.608 69.41 15.248C68.9087 15.8773 68.1673 16.192 67.186 16.192ZM73.3914 19.392C73.1567 19.392 72.8954 19.3493 72.6074 19.264C72.33 19.1787 72.042 19.0667 71.7434 18.928L72.3034 17.68C72.538 17.7867 72.7407 17.8667 72.9114 17.92C73.0927 17.9733 73.2367 18 73.3434 18C73.61 18 73.834 17.9253 74.0154 17.776C74.2074 17.6267 74.362 17.4187 74.4794 17.152L75.4074 14.96L78.2554 8H79.8874L76.0954 16.992C75.8927 17.4827 75.6794 17.9093 75.4554 18.272C75.2314 18.6347 74.954 18.912 74.6234 19.104C74.3034 19.296 73.8927 19.392 73.3914 19.392ZM74.9914 16L71.4874 8H73.1034L75.9994 14.944L76.4634 16H74.9914Z" fill="#111822" fill-opacity="0.75"/>
</svg>
