<svg width="33" height="33" viewBox="0 0 33 33" fill="none" xmlns="http://www.w3.org/2000/svg">
<path d="M29.8195 6.4494H29.8165C29.8145 6.4494 29.8116 6.45039 29.8086 6.45039C29.8056 6.45138 29.8017 6.45138 29.799 6.45237C29.7776 6.45633 29.7436 6.46293 29.6977 6.47085H29.6967C29.6403 6.48141 29.567 6.49527 29.4766 6.51177C29.4083 6.52431 29.3314 6.53916 29.2456 6.55566C29.1892 6.56622 29.1278 6.5781 29.0625 6.59064C28.0893 6.77973 26.2723 7.14801 24.1293 7.65918C23.7006 7.76148 23.2594 7.86972 22.8093 7.98357C22.6581 8.02152 22.5073 8.06046 22.3552 8.0994C22.2031 8.13834 22.0503 8.17728 21.8965 8.2182C21.7427 8.25813 21.5886 8.29905 21.4338 8.34096C20.8144 8.50662 20.1861 8.68185 19.5594 8.865C18.5958 9.14847 17.6626 9.52368 16.7752 9.9903C16.6135 10.0751 16.4538 10.1629 16.2961 10.2533C16.0595 10.3896 15.8255 10.5328 15.5958 10.683H15.5948C15.5219 10.7318 15.4486 10.7793 15.3767 10.8292C15.3038 10.879 15.2315 10.9285 15.1605 10.9793C15.0896 11.0301 15.0193 11.0816 14.949 11.1341C14.8797 11.1856 14.8107 11.2384 14.7434 11.2918C14.7094 11.3182 14.6761 11.3453 14.6431 11.3717C14.5438 11.4525 14.4474 11.5344 14.3557 11.6172C14.2943 11.6726 14.2349 11.7284 14.1775 11.7839C14.1201 11.8403 14.0646 11.8967 14.0118 11.9535C14.0253 11.9241 14.2689 11.4275 15.4701 10.2263C14.9361 10.4299 14.424 10.6404 13.9386 10.8556C13.7934 10.9209 13.6501 10.9862 13.5099 11.0513C13.1825 11.204 12.8707 11.3611 12.5757 11.5189C12.5337 11.5413 12.4918 11.5637 12.4509 11.5872C11.9949 11.8376 11.585 12.0947 11.2302 12.3557C10.9174 12.5867 10.6329 12.8399 10.3749 13.1138V13.1147C10.2901 13.2055 10.2072 13.2979 10.1274 13.3933C10.0875 13.4411 10.0485 13.4896 10.0106 13.5385C9.85843 13.7332 9.71917 13.9348 9.59179 14.1434C8.73445 15.5548 8.46649 17.2579 8.84863 18.8624C8.8681 18.9422 8.88856 19.0211 8.91001 19.1V19.1009C9.10867 19.8121 9.43801 20.5008 9.90265 21.1311C10.0129 21.2803 10.1277 21.4225 10.2485 21.5588C10.2884 21.6047 10.3293 21.6495 10.3703 21.6931C10.4511 21.7819 10.5359 21.8673 10.6227 21.9482C10.6656 21.9901 10.7095 22.03 10.7534 22.07C10.7973 22.1099 10.8422 22.1488 10.8867 22.1868C11.0309 22.3105 11.1801 22.4254 11.3329 22.5336C11.4857 22.6409 11.6418 22.7422 11.8025 22.8356H11.8035C12.084 22.9982 12.3763 23.1385 12.6753 23.2553C12.6763 23.2563 12.6763 23.2553 12.6763 23.2553C13.8201 23.6995 15.0787 23.8028 16.2885 23.5418C16.2895 23.5408 16.2905 23.5408 16.2905 23.5408C16.3987 23.5173 16.5076 23.4903 16.6158 23.4609C16.6383 23.455 16.6597 23.4484 16.6822 23.4424C16.731 23.4279 16.7795 23.4131 16.8284 23.3985C17.0204 23.3381 17.2102 23.2688 17.3963 23.189C17.4432 23.1695 17.4897 23.15 17.5365 23.1286C17.9322 22.9494 18.315 22.7263 18.6783 22.4584C18.9882 22.2303 19.2852 21.9713 19.5717 21.6868C19.7433 21.5152 19.9106 21.335 20.0742 21.1463C20.2389 20.9582 20.3996 20.7605 20.5564 20.5559C20.6392 20.4477 20.721 20.3378 20.8019 20.2256C20.9781 19.983 21.1507 19.7316 21.3193 19.4725C21.4675 19.2455 21.6127 19.0118 21.7566 18.7739C21.8998 18.5363 22.042 18.2928 22.1813 18.0453C22.5077 17.4674 22.8251 16.8685 23.1399 16.2577C23.2297 16.0844 23.3181 15.9089 23.4069 15.7326C23.4518 15.6449 23.4957 15.5574 23.5402 15.4686C23.5383 15.4706 23.5333 15.4746 23.5257 15.4802C23.5043 15.4987 23.4624 15.5327 23.401 15.5775C23.2657 15.6749 23.0347 15.824 22.7123 15.9663C22.6383 15.9993 22.5585 16.0316 22.4747 16.0626C22.3823 16.0966 22.2846 16.13 22.1806 16.161C22.0325 16.2059 21.8718 16.2458 21.7005 16.2788L21.7015 16.2778C21.7015 16.2778 21.7015 16.2758 21.7025 16.2748C21.7025 16.2738 21.7035 16.2709 21.7044 16.2679C21.7054 16.2639 21.7074 16.259 21.7094 16.2534C21.7229 16.2154 21.7513 16.1326 21.8008 16.0098C21.8143 15.9749 21.8302 15.9369 21.8477 15.896C21.9899 15.5617 22.246 15.0182 22.6756 14.2994C22.7291 14.2097 22.7859 14.1173 22.8443 14.0219C23.6422 12.7379 24.9483 10.9678 27.0363 8.88216C27.3451 8.57328 27.6715 8.25681 28.0164 7.9344C28.2744 7.69185 28.5434 7.44633 28.8219 7.19784C28.9008 7.12755 28.9816 7.06056 29.0634 6.99423C29.1453 6.9279 29.2271 6.86256 29.3109 6.80052C29.4776 6.67479 29.6489 6.55698 29.8234 6.44775C29.8224 6.44775 29.8215 6.44775 29.8205 6.44874L29.8195 6.4494ZM20.8151 16.0049L20.3584 17.4777L21.5662 17.2467C21.2273 17.8634 20.892 18.4314 20.5432 18.968C19.7277 20.2187 18.9377 21.1169 18.1282 21.7132C17.2019 22.396 16.106 22.7577 14.9592 22.7577C14.6094 22.7577 14.2626 22.7227 13.9247 22.6554C12.9934 22.4712 12.1245 22.0416 11.4134 21.4152C11.1319 21.1677 10.8748 20.8882 10.6488 20.5813C8.89912 18.2073 9.40666 14.8512 11.7797 13.1006C12.0622 12.893 12.3925 12.6828 12.7674 12.4703C12.8766 12.7847 12.9855 13.0986 13.0957 13.4134C13.797 12.9973 14.295 12.6633 14.6289 12.4277C14.7837 12.3185 15.152 12.0624 15.6704 11.7254C15.7922 11.6466 15.9304 11.5598 16.102 11.4585C16.6894 11.1087 17.8167 10.3411 19.8205 9.75369C21.2972 9.32106 22.7819 8.93628 24.1438 8.60892C24.9457 8.41587 25.7054 8.24262 26.3951 8.09082C26.4485 8.07927 26.5013 8.06739 26.5538 8.05584C21.8942 12.6577 20.8606 15.857 20.8151 16.0052V16.0049Z" fill="url(#paint0_linear_1_442)"/>
<path d="M29.8215 6.44751C29.8215 6.44751 29.8205 6.4485 29.8195 6.44949C29.6462 6.55773 29.4756 6.67554 29.31 6.80127C29.2262 6.86364 29.1443 6.92898 29.0625 6.99498C28.9806 7.06098 28.9008 7.12929 28.8209 7.19958C28.5424 7.44807 28.2734 7.69359 28.0154 7.93515C27.6715 8.25756 27.3452 8.57436 27.0353 8.88291C24.9477 10.9685 23.6412 12.7386 22.8433 14.0227C22.7849 14.118 22.7285 14.2108 22.6747 14.3002C22.245 15.0193 21.9889 15.5628 21.8467 15.8967C21.8302 15.9376 21.8137 15.9756 21.7998 16.0106C21.75 16.1333 21.722 16.2162 21.7084 16.2541C21.7064 16.2601 21.7045 16.2647 21.7035 16.2686C21.7025 16.2716 21.7015 16.2746 21.7015 16.2756C21.7005 16.2775 21.7005 16.2785 21.7005 16.2785C21.8721 16.2455 22.0318 16.2066 22.1797 16.1617C22.2839 16.1307 22.3813 16.0974 22.4737 16.0634C22.5575 16.0324 22.6374 15.999 22.7113 15.967C23.0337 15.8248 23.2647 15.6756 23.4 15.5783C23.4624 15.5334 23.5043 15.4994 23.5247 15.4809C23.5327 15.475 23.5373 15.471 23.5393 15.4694C23.4944 15.5581 23.4505 15.6456 23.4059 15.7334C23.3172 15.9086 23.2277 16.0842 23.139 16.2584C22.8245 16.8692 22.5067 17.4682 22.1803 18.046C22.0401 18.2935 21.8988 18.5371 21.7556 18.7747C21.6114 19.0123 21.4662 19.2462 21.3184 19.4733C21.1497 19.7323 20.9775 19.9838 20.8009 20.2263C20.7201 20.3382 20.6382 20.4484 20.5554 20.5567C20.3987 20.7613 20.2379 20.9589 20.0733 21.147C19.9096 21.3361 19.742 21.5163 19.5707 21.6876C19.2842 21.972 18.9872 22.2311 18.6774 22.4591C18.314 22.7271 17.9312 22.9501 17.5356 23.1293C17.4887 23.1498 17.4432 23.1703 17.3953 23.1897C17.2092 23.2696 17.0195 23.3389 16.8274 23.3993C16.7786 23.4138 16.73 23.4286 16.6812 23.4432C16.6588 23.4491 16.6373 23.4557 16.6149 23.4617C16.5066 23.491 16.3987 23.5181 16.2895 23.5415C16.2895 23.5415 16.2885 23.5415 16.2875 23.5425C15.0787 23.8045 13.8191 23.7012 12.6753 23.2561C12.6753 23.2561 12.6753 23.257 12.6743 23.2561C12.3754 23.1402 12.084 23 11.8025 22.8363H11.8015C11.6418 22.7439 11.485 22.6436 11.3319 22.5343C11.1791 22.4261 11.03 22.3113 10.8857 22.1875C11.7296 22.4944 12.8225 22.7749 13.9241 22.6561C14.262 22.7234 14.6088 22.7584 14.9586 22.7584C16.1054 22.7584 17.2013 22.3971 18.1276 21.714C18.9371 21.1177 19.7271 20.2197 20.5425 18.9687C20.8913 18.4318 21.2263 17.8639 21.5655 17.2474L20.3577 17.4784L20.8145 16.0056C20.8603 15.8575 21.8939 12.6584 26.5532 8.05626C26.5551 8.05461 26.6271 8.02293 26.7248 7.9764C26.8825 7.90116 27.0148 7.83384 27.1145 7.7817C28.0167 7.33719 28.9186 6.89268 29.8208 6.44817L29.8215 6.44751Z" fill="#FDFFFF"/>
<path d="M28.5774 6.68726C27.5016 6.90176 25.8235 7.25387 23.9138 7.71224C25.8311 7.24925 27.5045 6.89879 28.5774 6.68726Z" fill="url(#paint1_linear_1_442)"/>
<path d="M29.5868 6.49121C29.5344 6.5021 29.4726 6.51266 29.4047 6.5252C29.4743 6.51299 29.5344 6.50045 29.5868 6.49121Z" fill="url(#paint2_linear_1_442)"/>
<path d="M29.6855 6.47266C29.6577 6.47893 29.6238 6.48487 29.5868 6.49114C29.6238 6.48355 29.6577 6.47728 29.6855 6.47266Z" fill="url(#paint3_linear_1_442)"/>
<path d="M29.8201 6.44775C29.8201 6.44775 29.8186 6.44775 29.8174 6.44926C29.8147 6.44926 29.8105 6.44926 29.8063 6.45077C29.8132 6.44926 29.8174 6.44805 29.8204 6.44805L29.8201 6.44775Z" fill="url(#paint4_linear_1_442)"/>
<path d="M14.9589 20.5967C13.9326 20.5967 12.9957 20.1238 12.3882 19.2995C11.3454 17.8844 11.648 15.884 13.063 14.8402C13.2686 14.689 16.8079 13.5789 17.2851 13.2671C18.2401 12.6444 19.2987 12.1599 20.4296 11.8276C20.496 11.8081 20.5626 11.789 20.6296 11.7695C19.2585 13.8304 18.8159 15.1567 18.7516 15.3642L17.689 18.7883C17.5418 19.2628 17.2468 19.678 16.8471 19.9733C16.2944 20.3809 15.6417 20.5964 14.9592 20.5964L14.9589 20.5967Z" fill="url(#paint5_linear_1_442)"/>
<path d="M14.9589 20.5967C13.9326 20.5967 12.9957 20.1238 12.3882 19.2995C11.3454 17.8844 11.648 15.884 13.063 14.8402C13.2686 14.689 16.8079 13.5789 17.2851 13.2671C18.2401 12.6444 19.2987 12.1599 20.4296 11.8276C20.496 11.8081 20.5626 11.789 20.6296 11.7695C19.2585 13.8304 18.8159 15.1567 18.7516 15.3642L17.689 18.7883C17.5418 19.2628 17.2468 19.678 16.8471 19.9733C16.2944 20.3809 15.6417 20.5964 14.9592 20.5964L14.9589 20.5967Z" fill="url(#paint6_linear_1_442)"/>
<path d="M14.9589 20.288C14.032 20.288 13.1855 19.861 12.6367 19.1165C11.6972 17.8417 11.9668 16.0412 13.2364 15.0964C12.4942 16.2495 12.7024 17.7803 13.7132 18.6825C14.7464 19.6049 16.3347 19.6168 17.3937 18.6974C17.265 19.1119 17.0125 19.4673 16.6634 19.7253C16.5908 19.7788 16.2631 20.0306 15.749 20.1774C15.5625 20.2309 15.2919 20.2877 14.9589 20.288Z" fill="#FDFFFF"/>
<path d="M26.6218 14.0917C24.9923 14.0917 23.666 15.418 23.666 17.0472C23.666 17.8527 23.993 18.5863 24.519 19.1206C23.5809 23.0492 20.0433 25.9783 15.8298 25.9783C10.9046 25.9783 6.89902 21.9728 6.89902 17.0472C6.89902 12.8552 9.74593 9.30407 13.7571 8.35928C14.291 8.88563 15.023 9.21134 15.8301 9.21134C17.46 9.21134 18.7856 7.8854 18.7856 6.25586C18.7856 4.62632 17.4597 3.30005 15.8301 3.30005C14.7979 3.30005 13.8888 3.833 13.3598 4.63688C7.43263 5.80475 3.17761 10.9495 3.17761 17.0475C3.17761 24.025 8.85262 29.7001 15.8298 29.7001C21.9619 29.7001 27.0868 25.317 28.2378 19.5199C29.043 18.9909 29.5776 18.0817 29.5776 17.0478C29.5776 15.4186 28.2513 14.0924 26.6218 14.0924V14.0917ZM15.8301 4.89494C16.5806 4.89494 17.1911 5.50544 17.1911 6.25586C17.1911 7.00628 16.5806 7.61678 15.8301 7.61678C15.0797 7.61678 14.4692 7.00628 14.4692 6.25586C14.4692 5.50544 15.0797 4.89494 15.8301 4.89494ZM26.6218 15.6866C27.3712 15.6866 27.9827 16.2981 27.9827 17.0475C27.9827 17.797 27.3716 18.4084 26.6218 18.4084C25.872 18.4084 25.2609 17.797 25.2609 17.0475C25.2609 16.2981 25.8724 15.6866 26.6218 15.6866Z" fill="url(#paint7_linear_1_442)"/>
<path d="M28.2377 19.5195C27.086 25.316 21.9628 29.7 15.8297 29.7C8.85221 29.7 3.17786 24.0254 3.17786 17.0482C3.17786 10.9491 7.43222 5.80574 13.36 4.63721C12.1113 5.14046 8.82152 6.66242 6.74219 10.2578C4.79882 13.6135 3.72599 19.0985 6.89036 23.433C10.058 27.7709 15.8436 28.7341 20.2461 27.3168C25.8512 25.5137 27.9569 20.2561 28.2377 19.5199V19.5195Z" fill="#FDFFFF"/>
<path fill-rule="evenodd" clip-rule="evenodd" d="M27.0185 10.8743L26.8452 11.3844L26.2944 11.5749L26.8452 11.723L27.0046 12.2289L27.1914 11.723L27.7421 11.5749L27.1914 11.3844L27.0185 10.8743Z" fill="url(#paint8_linear_1_442)"/>
<path fill-rule="evenodd" clip-rule="evenodd" d="M21.4477 4.8689L21.1521 5.73911L20.2129 6.06416L21.1521 6.31628L21.4243 7.17956L21.7431 6.31628L22.6826 6.06416L21.7431 5.73911L21.4477 4.8689Z" fill="url(#paint9_linear_1_442)"/>
<path fill-rule="evenodd" clip-rule="evenodd" d="M19.569 10.2959L19.4492 10.6487L19.0684 10.7803L19.4492 10.8826L19.5594 11.2328L19.6888 10.8826L20.0696 10.7803L19.6888 10.6487L19.569 10.2959Z" fill="url(#paint10_linear_1_442)"/>
<path fill-rule="evenodd" clip-rule="evenodd" d="M19.7983 15.7603L19.736 15.9437L19.538 16.012L19.736 16.0655L19.7934 16.2473L19.8607 16.0655L20.0587 16.012L19.8607 15.9437L19.7983 15.7603Z" fill="url(#paint11_linear_1_442)"/>
<path fill-rule="evenodd" clip-rule="evenodd" d="M16.3095 12.1846L16.2046 12.4938L15.871 12.6093L16.2046 12.699L16.3013 13.0056L16.4145 12.699L16.7484 12.6093L16.4145 12.4938L16.3095 12.1846Z" fill="url(#paint12_linear_1_442)"/>
<defs>
<linearGradient id="paint0_linear_1_442" x1="33.2287" y1="4.57797" x2="9.05653" y2="21.5472" gradientUnits="userSpaceOnUse">
<stop stop-color="#077BFF"/>
<stop offset="0.27" stop-color="#097DFF"/>
<stop offset="0.44" stop-color="#1284FF"/>
<stop offset="0.59" stop-color="#2191FF"/>
<stop offset="0.72" stop-color="#36A3FF"/>
<stop offset="0.85" stop-color="#51BBFF"/>
<stop offset="0.96" stop-color="#72D7FF"/>
<stop offset="1" stop-color="#80E3FF"/>
</linearGradient>
<linearGradient id="paint1_linear_1_442" x1="24.5923" y1="8.85305" x2="27.1528" y2="6.29258" gradientUnits="userSpaceOnUse">
<stop stop-color="#71C6B7"/>
<stop offset="1" stop-color="#2A75B9"/>
</linearGradient>
<linearGradient id="paint2_linear_1_442" x1="29.433" y1="6.57074" x2="29.5304" y2="6.47372" gradientUnits="userSpaceOnUse">
<stop stop-color="#71C6B7"/>
<stop offset="1" stop-color="#2A75B9"/>
</linearGradient>
<linearGradient id="paint3_linear_1_442" x1="29.602" y1="6.51589" x2="29.6548" y2="6.46309" gradientUnits="userSpaceOnUse">
<stop stop-color="#71C6B7"/>
<stop offset="1" stop-color="#2A75B9"/>
</linearGradient>
<linearGradient id="paint4_linear_1_442" x1="29.8081" y1="6.45408" x2="29.8159" y2="6.44625" gradientUnits="userSpaceOnUse">
<stop stop-color="#71C6B7"/>
<stop offset="1" stop-color="#2A75B9"/>
</linearGradient>
<linearGradient id="paint5_linear_1_442" x1="12.2684" y1="20.0862" x2="17.6731" y2="14.6815" gradientUnits="userSpaceOnUse">
<stop stop-color="#71C6B7"/>
<stop offset="1" stop-color="#2A75B9"/>
</linearGradient>
<linearGradient id="paint6_linear_1_442" x1="20.7507" y1="11.6035" x2="11.546" y2="20.8086" gradientUnits="userSpaceOnUse">
<stop stop-color="#077BFF"/>
<stop offset="0.25" stop-color="#2191FF"/>
<stop offset="0.8" stop-color="#65CCFF"/>
<stop offset="1" stop-color="#80E3FF"/>
</linearGradient>
<linearGradient id="paint7_linear_1_442" x1="0.796992" y1="3.47231" x2="28.4602" y2="31.1356" gradientUnits="userSpaceOnUse">
<stop offset="0.2" stop-color="#077BFF"/>
<stop offset="1" stop-color="#80E3FF"/>
</linearGradient>
<linearGradient id="paint8_linear_1_442" x1="25.5206" y1="13.0727" x2="27.4795" y2="11.1138" gradientUnits="userSpaceOnUse">
<stop offset="0.43" stop-color="#077BFF"/>
<stop offset="0.6" stop-color="#2797FF"/>
<stop offset="0.98" stop-color="#7ADEFF"/>
<stop offset="1" stop-color="#80E3FF"/>
</linearGradient>
<linearGradient id="paint9_linear_1_442" x1="20.3439" y1="7.16801" x2="22.8443" y2="4.66727" gradientUnits="userSpaceOnUse">
<stop stop-color="#077BFF"/>
<stop offset="0.3" stop-color="#2797FF"/>
<stop offset="0.96" stop-color="#7ADEFF"/>
<stop offset="1" stop-color="#80E3FF"/>
</linearGradient>
<linearGradient id="paint10_linear_1_442" x1="19.1482" y1="11.2011" x2="20.1838" y2="10.1656" gradientUnits="userSpaceOnUse">
<stop stop-color="#077BFF"/>
<stop offset="0.3" stop-color="#2797FF"/>
<stop offset="0.96" stop-color="#7ADEFF"/>
<stop offset="1" stop-color="#80E3FF"/>
</linearGradient>
<linearGradient id="paint11_linear_1_442" x1="19.44" y1="16.3704" x2="20.752" y2="15.0583" gradientUnits="userSpaceOnUse">
<stop stop-color="#077BFF"/>
<stop offset="0.3" stop-color="#2797FF"/>
<stop offset="0.96" stop-color="#7ADEFF"/>
<stop offset="1" stop-color="#80E3FF"/>
</linearGradient>
<linearGradient id="paint12_linear_1_442" x1="15.963" y1="12.9561" x2="17.0636" y2="11.8552" gradientUnits="userSpaceOnUse">
<stop stop-color="#077BFF"/>
<stop offset="0.3" stop-color="#2797FF"/>
<stop offset="0.96" stop-color="#7ADEFF"/>
<stop offset="1" stop-color="#80E3FF"/>
</linearGradient>
</defs>
</svg>
