<svg width="93" height="19" viewBox="0 0 93 19" fill="none" xmlns="http://www.w3.org/2000/svg">
<path d="M5.39875 15.54C4.51875 15.54 3.73875 15.4067 3.05875 15.14C2.37875 14.86 1.82542 14.5 1.39875 14.06C0.972086 13.62 0.685419 13.1467 0.538753 12.64L2.61875 12C2.77875 12.44 3.07875 12.82 3.51875 13.14C3.97209 13.46 4.53209 13.6267 5.19875 13.64C5.95875 13.64 6.55875 13.4867 6.99875 13.18C7.45209 12.86 7.67875 12.44 7.67875 11.92C7.67875 11.4667 7.48542 11.0867 7.09875 10.78C6.72542 10.4733 6.22542 10.24 5.59875 10.08L4.05875 9.7C3.45875 9.54 2.92542 9.30667 2.45875 9C1.99209 8.68 1.62542 8.29333 1.35875 7.84C1.09209 7.37333 0.958753 6.82667 0.958753 6.2C0.958753 5.02667 1.33875 4.11333 2.09875 3.46C2.87209 2.79333 3.97209 2.46 5.39875 2.46C6.21209 2.46 6.91875 2.58667 7.51875 2.84C8.11875 3.08 8.61875 3.42 9.01875 3.86C9.41875 4.28667 9.71209 4.76667 9.89875 5.3L7.83875 5.98C7.66542 5.52667 7.35875 5.14667 6.91875 4.84C6.47875 4.52 5.93875 4.36 5.29875 4.36C4.63209 4.36 4.10542 4.52 3.71875 4.84C3.34542 5.14667 3.15875 5.57333 3.15875 6.12C3.15875 6.58667 3.30542 6.94667 3.59875 7.2C3.90542 7.45333 4.30542 7.64667 4.79875 7.78L6.35875 8.16C7.49209 8.44 8.36542 8.92 8.97875 9.6C9.60542 10.28 9.91875 11.0267 9.91875 11.84C9.91875 12.56 9.73875 13.2 9.37875 13.76C9.03209 14.3067 8.52542 14.74 7.85875 15.06C7.19209 15.38 6.37209 15.54 5.39875 15.54ZM4.45875 18.06V14.76H6.37875V18.06H4.45875ZM4.45875 3.7V0.399999H6.37875V3.7H4.45875ZM14.4711 16L14.4911 3.24L14.7111 2H16.7311L16.7111 16H14.4711ZM11.4511 6.1V4C11.7578 4.01333 12.1044 3.92667 12.4911 3.74C12.8911 3.54 13.2844 3.28 13.6711 2.96C14.0578 2.64 14.4044 2.31333 14.7111 1.98L16.1511 3.48C15.6844 3.97333 15.1978 4.42667 14.6911 4.84C14.1844 5.25333 13.6578 5.57333 13.1111 5.8C12.5778 6.02667 12.0244 6.12667 11.4511 6.1ZM22.45 16L22.47 3.24L22.69 2H24.71L24.69 16H22.45ZM19.43 6.1V4C19.7367 4.01333 20.0833 3.92667 20.47 3.74C20.87 3.54 21.2633 3.28 21.65 2.96C22.0367 2.64 22.3833 2.31333 22.69 1.98L24.13 3.48C23.6633 3.97333 23.1767 4.42667 22.67 4.84C22.1633 5.25333 21.6367 5.57333 21.09 5.8C20.5567 6.02667 20.0033 6.12667 19.43 6.1ZM32.3289 16.24C31.3822 16.24 30.5756 16.0667 29.9089 15.72C29.2556 15.36 28.7289 14.88 28.3289 14.28C27.9289 13.6667 27.6356 12.96 27.4489 12.16C27.2622 11.3467 27.1689 10.48 27.1689 9.56C27.1689 8.44 27.2822 7.40667 27.5089 6.46C27.7489 5.51333 28.1022 4.68667 28.5689 3.98C29.0356 3.27333 29.6156 2.72667 30.3089 2.34C31.0156 1.95333 31.8356 1.76 32.7689 1.76C33.4889 1.76 34.1956 1.87333 34.8889 2.1C35.5956 2.31333 36.2222 2.61333 36.7689 3L35.5689 4.68C35.1556 4.38667 34.7022 4.16667 34.2089 4.02C33.7289 3.87333 33.2822 3.8 32.8689 3.8C31.7089 3.8 30.8089 4.3 30.1689 5.3C29.5422 6.3 29.2556 7.85333 29.3089 9.96L28.8289 9.6C29.1356 8.84 29.6222 8.23333 30.2889 7.78C30.9556 7.31333 31.7489 7.08 32.6689 7.08C33.5622 7.08 34.3556 7.28667 35.0489 7.7C35.7422 8.1 36.2822 8.65333 36.6689 9.36C37.0556 10.0533 37.2489 10.8467 37.2489 11.74C37.2489 12.6067 37.0422 13.38 36.6289 14.06C36.2289 14.74 35.6556 15.2733 34.9089 15.66C34.1756 16.0467 33.3156 16.24 32.3289 16.24ZM32.3489 14.26C32.8422 14.26 33.2822 14.1467 33.6689 13.92C34.0689 13.6933 34.3822 13.3867 34.6089 13C34.8356 12.6 34.9489 12.1467 34.9489 11.64C34.9489 11.1333 34.8356 10.68 34.6089 10.28C34.3822 9.88 34.0689 9.57333 33.6689 9.36C33.2822 9.13333 32.8422 9.02 32.3489 9.02C31.8422 9.02 31.3889 9.13333 30.9889 9.36C30.6022 9.57333 30.2956 9.88 30.0689 10.28C29.8422 10.68 29.7289 11.1333 29.7289 11.64C29.7289 12.1467 29.8422 12.6 30.0689 13C30.2956 13.3867 30.6022 13.6933 30.9889 13.92C31.3889 14.1467 31.8422 14.26 32.3489 14.26ZM39.7733 16.28C39.3866 16.28 39.0533 16.1467 38.7733 15.88C38.5066 15.6 38.3733 15.2667 38.3733 14.88C38.3733 14.4933 38.5066 14.16 38.7733 13.88C39.0533 13.6 39.3866 13.46 39.7733 13.46C40.16 13.46 40.4933 13.6 40.7733 13.88C41.0533 14.16 41.1933 14.4933 41.1933 14.88C41.1933 15.2667 41.0533 15.6 40.7733 15.88C40.4933 16.1467 40.16 16.28 39.7733 16.28ZM43.4817 16L49.6817 3.78H52.0617L46.0417 16H43.4817ZM42.4217 4.12V2H52.0617V3.78L49.8817 4.12H42.4217ZM58.0988 16.24C57.4854 16.24 56.8588 16.1467 56.2188 15.96C55.5921 15.76 55.0121 15.4667 54.4788 15.08C53.9454 14.68 53.5388 14.18 53.2588 13.58L55.3188 12.82C55.6654 13.3133 56.0721 13.6733 56.5388 13.9C57.0054 14.1133 57.4854 14.22 57.9788 14.22C58.7654 14.22 59.4054 13.9867 59.8988 13.52C60.3921 13.04 60.6388 12.4067 60.6388 11.62C60.6388 10.86 60.3988 10.2333 59.9188 9.74C59.4388 9.24667 58.8121 9 58.0388 9C57.5854 9 57.1588 9.1 56.7588 9.3C56.3721 9.5 56.0721 9.74 55.8588 10.02L53.7588 9.56L54.5388 2H62.2788V4.1H54.8188L54.5388 2.08H56.8388L55.8788 9.74L54.4588 9.56C54.6188 9.29333 54.8254 9.02667 55.0788 8.76C55.3454 8.48 55.6654 8.22 56.0388 7.98C56.4121 7.74 56.8254 7.54667 57.2788 7.4C57.7321 7.25333 58.2254 7.18667 58.7588 7.2C59.5588 7.2 60.2788 7.38667 60.9188 7.76C61.5588 8.13333 62.0654 8.64667 62.4388 9.3C62.8121 9.94 62.9988 10.68 62.9988 11.52C62.9988 12.4533 62.7854 13.2733 62.3588 13.98C61.9454 14.6867 61.3721 15.24 60.6388 15.64C59.9054 16.04 59.0588 16.24 58.0988 16.24Z" fill="#16D113"/>
<path d="M63.6612 17.344L68.0772 4.048H69.5972L65.2132 17.344H63.6612ZM70.5791 16V8H72.0031L72.0991 9.472V16H70.5791ZM76.1151 16V11.904L77.6351 11.424V16H76.1151ZM81.6511 16V11.904L83.1551 11.424V16H81.6511ZM76.1151 11.904C76.1151 11.1787 76.0298 10.6293 75.8591 10.256C75.6991 9.872 75.4698 9.60533 75.1711 9.456C74.8831 9.30667 74.5471 9.22667 74.1631 9.216C73.5125 9.216 73.0058 9.44533 72.6431 9.904C72.2805 10.3627 72.0991 11.008 72.0991 11.84H71.4431C71.4431 10.9973 71.5658 10.2773 71.8111 9.68C72.0565 9.072 72.4085 8.608 72.8671 8.288C73.3365 7.968 73.8965 7.808 74.5471 7.808C75.5071 7.808 76.2591 8.10667 76.8031 8.704C77.3578 9.29067 77.6351 10.1973 77.6351 11.424L76.1151 11.904ZM81.6511 11.904C81.6511 11.1787 81.5658 10.6293 81.3951 10.256C81.2245 9.872 80.9951 9.60533 80.7071 9.456C80.4191 9.30667 80.0831 9.22667 79.6991 9.216C79.0485 9.216 78.5418 9.44533 78.1791 9.904C77.8165 10.3627 77.6351 11.008 77.6351 11.84H76.9791C76.9791 10.9973 77.1018 10.2773 77.3471 9.68C77.5925 9.072 77.9445 8.608 78.4031 8.288C78.8725 7.968 79.4325 7.808 80.0831 7.808C81.0431 7.808 81.7951 8.10667 82.3391 8.704C82.8938 9.29067 83.1658 10.1973 83.1551 11.424L81.6511 11.904ZM88.3908 16.192C87.5908 16.192 86.8868 16.016 86.2788 15.664C85.6708 15.3013 85.1908 14.8053 84.8388 14.176C84.4974 13.5467 84.3268 12.8213 84.3268 12C84.3268 11.1787 84.4974 10.4533 84.8388 9.824C85.1801 9.19467 85.6548 8.704 86.2628 8.352C86.8708 7.98933 87.5694 7.808 88.3588 7.808C89.1481 7.808 89.8468 7.98933 90.4548 8.352C91.0628 8.704 91.5374 9.19467 91.8788 9.824C92.2201 10.4533 92.3908 11.1787 92.3908 12C92.3908 12.8213 92.2201 13.5467 91.8788 14.176C91.5374 14.8053 91.0628 15.3013 90.4548 15.664C89.8574 16.016 89.1694 16.192 88.3908 16.192ZM88.3908 14.8C88.8708 14.8 89.2974 14.6827 89.6708 14.448C90.0441 14.2027 90.3321 13.872 90.5348 13.456C90.7481 13.04 90.8548 12.5547 90.8548 12C90.8548 11.4453 90.7481 10.96 90.5348 10.544C90.3321 10.128 90.0388 9.80267 89.6548 9.568C89.2708 9.32267 88.8388 9.2 88.3588 9.2C87.8681 9.2 87.4361 9.32267 87.0628 9.568C86.6894 9.80267 86.3961 10.128 86.1828 10.544C85.9694 10.96 85.8628 11.4453 85.8628 12C85.8628 12.5547 85.9694 13.04 86.1828 13.456C86.3961 13.872 86.6948 14.2027 87.0788 14.448C87.4628 14.6827 87.9001 14.8 88.3908 14.8Z" fill="#111822" fill-opacity="0.75"/>
</svg>
