<svg width="20" height="20" viewBox="0 0 20 20" fill="none" xmlns="http://www.w3.org/2000/svg">
<path d="M9.54552 1.32213C9.783 0.59122 10.817 0.59122 11.0545 1.32213L12.7936 6.67452C12.8998 7.00139 13.2044 7.2227 13.5481 7.2227H19.176C19.9445 7.2227 20.264 8.20613 19.6423 8.65785L15.0893 11.9658C14.8112 12.1678 14.6949 12.5259 14.8011 12.8528L16.5402 18.2052C16.7776 18.9361 15.9411 19.5439 15.3193 19.0921L10.7663 15.7842C10.4883 15.5822 10.1118 15.5822 9.83371 15.7842L5.2807 19.0921C4.65895 19.5439 3.8224 18.9361 4.05988 18.2052L5.79898 12.8528C5.90519 12.5259 5.78884 12.1678 5.51079 11.9658L0.957771 8.65785C0.336025 8.20613 0.65556 7.2227 1.42408 7.2227H7.05192C7.39561 7.2227 7.70021 7.00139 7.80642 6.67452L9.54552 1.32213Z" fill="#16D113"/>
</svg>
