<svg width="72" height="17" viewBox="0 0 72 17" fill="none" xmlns="http://www.w3.org/2000/svg">
<path d="M0.494925 0.751503H10.3081V2.57833H6.44426V12.8765H4.32643V2.57833H0.47876L0.494925 0.751503ZM9.88776 4.098H11.6984V5.7955H11.7308C11.7954 5.553 11.9086 5.32667 12.0703 5.10034C12.2319 4.874 12.4259 4.66383 12.6684 4.486C12.8948 4.292 13.1534 4.1465 13.4444 4.03333C13.7193 3.92017 14.0103 3.8555 14.3013 3.8555C14.5276 3.8555 14.6893 3.87167 14.7701 3.87167C14.8509 3.88783 14.9479 3.904 15.0288 3.904V5.76317C14.8994 5.73084 14.7539 5.71467 14.6084 5.6985C14.4629 5.68233 14.3336 5.66617 14.1881 5.66617C13.8648 5.66617 13.5576 5.73083 13.2666 5.86017C12.9756 5.9895 12.7331 6.1835 12.5068 6.426C12.2966 6.68467 12.1188 6.99184 11.9894 7.36367C11.8601 7.7355 11.7954 8.172 11.7954 8.657V12.828H9.85543L9.88776 4.098ZM23.9204 12.8765H22.0128V11.6478H21.9804C21.7379 12.1005 21.3823 12.44 20.9134 12.7148C20.4446 12.9897 19.9596 13.119 19.4746 13.119C18.3268 13.119 17.4861 12.8442 16.9688 12.2622C16.4514 11.6963 16.1928 10.8233 16.1928 9.6755V4.098H18.1328V9.4815C18.1328 10.2575 18.2783 10.8072 18.5854 11.1143C18.8764 11.4377 19.2968 11.5993 19.8303 11.5993C20.2344 11.5993 20.5739 11.5347 20.8488 11.4053C21.1236 11.276 21.3499 11.1143 21.5116 10.9042C21.6894 10.694 21.8026 10.4353 21.8834 10.1443C21.9643 9.85333 21.9966 9.53 21.9966 9.1905V4.098H23.9366V12.8765H23.9204ZM27.2184 10.0635C27.2831 10.6293 27.4933 11.0173 27.8651 11.2598C28.2369 11.4862 28.6896 11.5993 29.2069 11.5993C29.3848 11.5993 29.5949 11.5832 29.8213 11.5508C30.0476 11.5185 30.2739 11.47 30.4679 11.3892C30.6781 11.3083 30.8398 11.1952 30.9691 11.0335C31.0984 10.8718 31.1631 10.6778 31.1469 10.4353C31.1308 10.1928 31.0499 9.98267 30.8721 9.821C30.6943 9.65933 30.4841 9.54617 30.2254 9.433C29.9668 9.336 29.6596 9.25517 29.3201 9.1905C28.9806 9.12583 28.6411 9.045 28.2854 8.96417C27.9298 8.88334 27.5741 8.78634 27.2346 8.67317C26.8951 8.56 26.6041 8.4145 26.3293 8.20433C26.0706 8.01033 25.8443 7.76784 25.6988 7.46067C25.5371 7.1535 25.4563 6.79783 25.4563 6.34517C25.4563 5.86017 25.5694 5.47217 25.8119 5.14883C26.0383 4.8255 26.3454 4.56684 26.7011 4.37284C27.0568 4.17884 27.4609 4.03333 27.8974 3.9525C28.3339 3.87167 28.7543 3.83933 29.1423 3.83933C29.5949 3.83933 30.0314 3.88784 30.4356 3.98484C30.8398 4.08184 31.2278 4.22734 31.5511 4.45367C31.8906 4.66384 32.1654 4.95483 32.3756 5.29433C32.6019 5.63383 32.7313 6.05417 32.7959 6.53917H30.7751C30.6781 6.07033 30.4679 5.76317 30.1446 5.6015C29.8051 5.43984 29.4333 5.359 28.9968 5.359C28.8674 5.359 28.6896 5.37517 28.5118 5.39133C28.3178 5.42367 28.1561 5.456 27.9783 5.52067C27.8166 5.58534 27.6711 5.68233 27.5579 5.7955C27.4448 5.90867 27.3801 6.07033 27.3801 6.26433C27.3801 6.50683 27.4609 6.68467 27.6226 6.83017C27.7843 6.97567 27.9944 7.08884 28.2693 7.202C28.5279 7.299 28.8351 7.37984 29.1746 7.4445C29.5141 7.50917 29.8698 7.59 30.2254 7.67084C30.5811 7.75167 30.9206 7.84867 31.2601 7.96183C31.5996 8.075 31.9068 8.2205 32.1654 8.43067C32.4241 8.62467 32.6504 8.86717 32.8121 9.15817C32.9738 9.44917 33.0546 9.821 33.0546 10.2413C33.0546 10.7587 32.9414 11.1952 32.6989 11.567C32.4564 11.9227 32.1493 12.2298 31.7774 12.4562C31.4056 12.6825 30.9691 12.8442 30.5164 12.9573C30.0476 13.0543 29.5949 13.119 29.1423 13.119C28.5926 13.119 28.0753 13.0543 27.6064 12.925C27.1376 12.7957 26.7173 12.6017 26.3778 12.3592C26.0383 12.1005 25.7634 11.7933 25.5694 11.4053C25.3754 11.0335 25.2623 10.5808 25.2461 10.0473H27.2023V10.0635H27.2184ZM33.6043 4.098H35.0754V1.44667H37.0154V4.08183H38.7614V5.52067H37.0154V10.209C37.0154 10.4192 37.0316 10.5808 37.0478 10.7425C37.0639 10.888 37.1124 11.0173 37.1609 11.1143C37.2256 11.2113 37.3226 11.2922 37.4358 11.3407C37.5651 11.3892 37.7268 11.4215 37.9531 11.4215C38.0824 11.4215 38.2279 11.4215 38.3573 11.4053C38.4866 11.3892 38.6321 11.373 38.7614 11.3407V12.8442C38.5513 12.8765 38.3411 12.8927 38.1309 12.9088C37.9208 12.9412 37.7268 12.9412 37.5004 12.9412C36.9831 12.9412 36.5789 12.8927 36.2718 12.7957C35.9646 12.6987 35.7221 12.5532 35.5443 12.3753C35.3664 12.1813 35.2533 11.955 35.1886 11.6802C35.1239 11.4053 35.0916 11.0658 35.0754 10.7102V5.53683H33.6043V4.06567V4.098ZM40.1194 4.098H41.9463V5.29433H41.9786C42.2534 4.777 42.6253 4.42133 43.1103 4.195C43.5953 3.96867 44.1126 3.8555 44.6946 3.8555C45.3898 3.8555 45.9879 3.96867 46.5053 4.22734C47.0226 4.46984 47.4429 4.79317 47.7824 5.22967C48.1219 5.65 48.3806 6.15117 48.5423 6.717C48.7039 7.28284 48.8009 7.89717 48.8009 8.52767C48.8009 9.12583 48.7201 9.69167 48.5746 10.2413C48.4129 10.791 48.1866 11.2922 47.8794 11.7125C47.5723 12.1328 47.1843 12.4723 46.6993 12.731C46.2143 12.9897 45.6646 13.119 45.0179 13.119C44.7431 13.119 44.4521 13.0867 44.1773 13.0382C43.9024 12.9897 43.6276 12.9088 43.3689 12.7957C43.1103 12.6825 42.8678 12.537 42.6576 12.3592C42.4313 12.1813 42.2534 11.9712 42.1079 11.7448H42.0756V16.126H40.1356V4.098H40.1194ZM46.8933 8.49534C46.8933 8.10734 46.8448 7.71934 46.7316 7.3475C46.6346 6.97567 46.4729 6.65233 46.2628 6.36133C46.0526 6.07033 45.7939 5.844 45.5029 5.66617C45.1958 5.48834 44.8401 5.4075 44.4521 5.4075C43.6438 5.4075 43.0294 5.68234 42.6091 6.24817C42.2049 6.814 41.9948 7.57384 41.9948 8.5115C41.9948 8.96417 42.0433 9.36833 42.1564 9.74017C42.2696 10.112 42.4151 10.4353 42.6414 10.7102C42.8516 10.985 43.1103 11.1952 43.4174 11.3568C43.7246 11.5185 44.0641 11.5993 44.4683 11.5993C44.9209 11.5993 45.2766 11.5023 45.5838 11.3245C45.8909 11.1467 46.1334 10.9042 46.3436 10.6293C46.5376 10.3383 46.6831 10.015 46.7639 9.64317C46.8448 9.25517 46.8933 8.88334 46.8933 8.49534ZM50.3044 0.751503H52.2444V2.57833H50.3044V0.751503ZM50.3044 4.098H52.2444V12.8765H50.3044V4.098ZM53.9743 0.751503H55.9143V12.8765H53.9743V0.751503ZM61.8313 13.119C61.1361 13.119 60.5056 13.0058 59.9559 12.7633C59.4063 12.5208 58.9536 12.2137 58.5656 11.8095C58.1938 11.4053 57.9028 10.9042 57.7088 10.3383C57.5148 9.7725 57.4016 9.142 57.4016 8.47917C57.4016 7.81634 57.4986 7.202 57.7088 6.63617C57.9028 6.07034 58.1938 5.58534 58.5656 5.165C58.9374 4.76084 59.4063 4.4375 59.9559 4.21117C60.5056 3.98484 61.1361 3.8555 61.8313 3.8555C62.5264 3.8555 63.1569 3.96867 63.7066 4.21117C64.2563 4.4375 64.7089 4.76084 65.0969 5.165C65.4688 5.56917 65.7598 6.07034 65.9538 6.63617C66.1478 7.202 66.2609 7.81634 66.2609 8.47917C66.2609 9.15817 66.1639 9.7725 65.9538 10.3383C65.7436 10.9042 65.4688 11.3892 65.0969 11.8095C64.7251 12.2137 64.2563 12.537 63.7066 12.7633C63.1569 12.9897 62.5426 13.119 61.8313 13.119ZM61.8313 11.5832C62.2516 11.5832 62.6396 11.4862 62.9468 11.3083C63.2701 11.1305 63.5126 10.888 63.7228 10.597C63.9329 10.306 64.0784 9.9665 64.1754 9.61084C64.2724 9.239 64.3209 8.86717 64.3209 8.47917C64.3209 8.10734 64.2724 7.7355 64.1754 7.36367C64.0784 6.99184 63.9329 6.6685 63.7228 6.3775C63.5126 6.0865 63.2539 5.86017 62.9468 5.68234C62.6234 5.5045 62.2516 5.4075 61.8313 5.4075C61.4109 5.4075 61.0229 5.5045 60.7158 5.68234C60.3924 5.86017 60.1499 6.10267 59.9398 6.3775C59.7296 6.6685 59.5841 6.99184 59.4871 7.36367C59.3901 7.7355 59.3416 8.10734 59.3416 8.47917C59.3416 8.86717 59.3901 9.239 59.4871 9.61084C59.5841 9.98267 59.7296 10.306 59.9398 10.597C60.1499 10.888 60.4086 11.1305 60.7158 11.3083C61.0391 11.5023 61.4109 11.5832 61.8313 11.5832ZM66.8429 4.098H68.3141V1.44667H70.2541V4.08183H72.0001V5.52067H70.2541V10.209C70.2541 10.4192 70.2703 10.5808 70.2864 10.7425C70.3026 10.888 70.3511 11.0173 70.3996 11.1143C70.4643 11.2113 70.5613 11.2922 70.6744 11.3407C70.8038 11.3892 70.9654 11.4215 71.1918 11.4215C71.3211 11.4215 71.4666 11.4215 71.5959 11.4053C71.7253 11.3892 71.8708 11.373 72.0001 11.3407V12.8442C71.7899 12.8765 71.5798 12.8927 71.3696 12.9088C71.1594 12.9412 70.9654 12.9412 70.7391 12.9412C70.2218 12.9412 69.8176 12.8927 69.5104 12.7957C69.2033 12.6987 68.9608 12.5532 68.7829 12.3753C68.6051 12.1813 68.4919 11.955 68.4273 11.6802C68.3626 11.4053 68.3303 11.0658 68.3141 10.7102V5.53683H66.8429V4.06567V4.098Z" fill="#111822"/>
</svg>
